<svg width="294" height="294" viewBox="0 0 294 294" fill="none" xmlns="http://www.w3.org/2000/svg">
<path d="M231.03 69.5458C230.744 68.485 230.39 67.4398 229.548 66.6806C228.731 65.9527 227.593 65.7187 226.579 66.1658C226.521 66.1918 226.469 66.223 226.412 66.249C226.308 65.2767 226.183 64.3043 226.038 63.3475C225.315 58.5844 220.724 55.7141 216.148 56.2601C213.049 56.6293 210.558 58.9952 209.518 61.8656C208.904 63.5503 209.05 65.2507 209.258 66.9822C209.804 71.5425 209.715 76.524 208.847 81.0375C208.005 85.4314 205.602 89.9189 201.942 92.5916C200.059 93.9644 197.792 94.6923 195.457 94.4896C192.889 94.2712 191.256 92.758 188.947 91.9312C186.862 91.1824 184.272 91.77 182.12 92.004C179.749 92.2588 177.388 92.6176 175.048 93.096C173.004 93.5172 170.982 94.0268 168.985 94.63C170.41 96.8035 171.954 98.899 173.675 100.833C175.989 103.428 178.615 105.721 181.678 107.494C187.652 110.947 194.267 112.689 201.193 111.722C208.036 110.77 213.745 106.844 217.999 101.541C224.083 93.954 226.573 84.4226 226.792 74.8392C227.889 73.4717 229.033 72.1509 230.442 71.0901C230.65 70.9341 230.749 70.7365 230.77 70.5389C231.056 70.3049 231.123 69.915 231.025 69.551L231.03 69.5458Z" fill="#D8E4FD"/>
<path d="M218.322 98.8259C214.074 104.13 208.359 108.056 201.516 109.007C194.59 109.974 187.976 108.233 182.001 104.78C178.938 103.007 176.312 100.713 173.998 98.1188C172.865 96.8448 171.809 95.4928 170.816 94.1045C170.202 94.2709 169.589 94.4425 168.98 94.6296C170.405 96.8032 171.95 98.8987 173.671 100.833C175.985 103.428 178.611 105.721 181.673 107.494C187.648 110.947 194.262 112.689 201.188 111.722C208.032 110.77 213.741 106.844 217.994 101.54C223.179 95.0768 225.747 87.199 226.533 79.082C225.472 86.2319 222.924 93.0905 218.322 98.8311V98.8259Z" fill="#B4CDFD"/>
<path d="M65.3572 281.935C65.2376 283.547 65.3364 284.477 63.9324 284.784C61.0569 285.419 57.1778 285.663 54.401 285.673H54.2294C51.3695 285.673 48.8164 285.424 47.0796 285.107C46.3516 285.008 45.5768 284.862 44.9893 284.514C44.9633 284.503 44.9321 284.483 44.9061 284.467C44.5629 284.243 44.2041 283.911 43.8453 283.515C43.0497 282.626 42.2645 281.43 41.6821 280.484C41.6145 280.38 41.5521 280.276 41.4949 280.177C41.3754 279.979 41.2662 279.797 41.1674 279.636C40.559 278.633 39.9662 277.619 39.3838 276.6C38.7078 275.409 38.037 274.213 37.3818 273.006C36.7267 271.8 36.0819 270.589 35.4631 269.367C35.0471 268.55 34.6467 267.729 34.2515 266.907C33.9811 266.345 33.7419 265.784 33.5703 265.212C33.2531 264.255 33.014 263.199 33.0556 262.289C32.9984 261.473 33.2428 260.615 33.7211 259.929C34.4231 258.915 35.6347 258.01 36.9035 257.558C37.9486 256.653 39.0562 255.805 40.1742 254.968C41.1622 254.235 42.1553 253.512 43.1173 252.784C44.0117 252.113 45.1505 251.9 46.0708 252.535C46.206 252.628 46.3256 252.732 46.44 252.857C46.4608 252.878 46.4816 252.904 46.5024 252.925C46.5284 252.956 46.5492 252.982 46.57 253.013C46.5804 253.013 46.596 253.013 46.6064 253.018C49.586 255.727 52.2535 258.764 54.609 262.035C54.9626 262.523 55.311 263.023 55.6594 263.517C55.6906 264.135 55.701 264.754 55.7218 265.357C55.727 265.545 55.935 266.897 56.1274 268.306C56.1534 268.493 56.1794 268.68 56.2054 268.867C56.4082 270.375 57.2714 271.706 58.5609 272.512C60.5525 273.755 63.3188 275.565 63.8804 276.262C64.676 277.255 65.2012 278.867 65.2896 280.427C65.3104 280.785 65.3728 281.586 65.3468 281.935H65.3572Z" fill="#4D7FFF"/>
<path d="M65.2948 280.427C65.2948 280.427 65.2948 280.395 65.2948 280.385C65.2532 280.785 65.196 281.399 65.1232 281.685C64.7384 283.255 64.6864 284.186 63.2512 284.264C60.3133 284.415 56.4446 284.02 53.7042 283.578L53.5327 283.552C50.7143 283.084 48.234 282.418 46.57 281.815C45.868 281.597 45.1245 281.326 44.6045 280.884C44.5785 280.869 44.5525 280.843 44.5317 280.827C44.2249 280.551 43.9285 280.167 43.6425 279.714C43.0029 278.705 42.4257 277.4 42.0045 276.371C41.9577 276.256 41.9109 276.142 41.8693 276.038C41.7861 275.825 41.7029 275.627 41.6353 275.45C41.2038 274.358 40.7826 273.261 40.377 272.159C39.9038 270.875 39.441 269.585 38.9938 268.285C38.5466 266.99 38.1098 265.685 37.699 264.38C37.4234 263.506 37.1635 262.633 36.9087 261.754C36.7371 261.156 36.5915 260.563 36.5135 259.965C36.3991 259.242 36.3367 258.473 36.3887 257.766C35.3123 258.26 34.3295 259.05 33.7211 259.929C33.2428 260.62 32.9984 261.473 33.0556 262.289C33.014 263.199 33.2531 264.26 33.5703 265.212C33.7419 265.784 33.9811 266.345 34.2515 266.907C34.6467 267.729 35.0471 268.55 35.4631 269.367C36.0819 270.589 36.7267 271.8 37.3818 273.006C38.037 274.213 38.7078 275.409 39.3838 276.6C39.9662 277.619 40.559 278.633 41.1674 279.636C41.261 279.797 41.3754 279.979 41.4949 280.177C41.5521 280.276 41.6145 280.38 41.6821 280.484C42.2645 281.43 43.0497 282.626 43.8453 283.515C44.1989 283.911 44.5577 284.243 44.9061 284.467C44.9321 284.483 44.9581 284.498 44.9893 284.514C45.5768 284.862 46.3464 285.008 47.0796 285.107C48.8164 285.429 51.3747 285.673 54.2294 285.673H54.401C57.1778 285.663 61.0569 285.413 63.9324 284.784C65.3364 284.472 65.2376 283.547 65.3572 281.935C65.3832 281.591 65.3208 280.785 65.3 280.427H65.2948Z" fill="#305EFF"/>
<path d="M56.075 268.16C56.075 268.16 56.101 268.16 56.1166 268.165C55.9294 266.808 55.737 265.534 55.7318 265.352C55.711 264.744 55.7006 264.13 55.6694 263.511C55.3262 263.012 54.9726 262.518 54.6191 262.029C52.2635 258.764 49.5908 255.727 46.6164 253.013H46.58C46.5592 252.976 46.5384 252.95 46.5124 252.919C46.4916 252.898 46.4708 252.872 46.45 252.852C46.3357 252.732 46.2109 252.628 46.0809 252.529C45.1657 251.895 44.0217 252.103 43.1273 252.779C42.1654 253.507 41.1722 254.23 40.1842 254.963C39.425 255.53 49.2164 266.678 56.0802 268.16H56.075Z" fill="#D8E4FD"/>
<path d="M205.197 281.04C205.228 280.551 205.207 280.083 205.145 279.673C205.093 279.34 205.035 279.038 204.983 278.794C204.219 275.232 201.385 273.76 198.125 272.84C194.163 271.717 190.361 270.198 186.898 267.916C186.519 267.208 185.77 266.792 184.928 266.678C181.714 266.226 178.501 265.903 175.323 266.782C174.065 267.13 173.613 268.233 173.753 269.262C173.009 271.556 172.318 273.869 171.969 276.267C171.829 277.244 171.569 278.929 171.574 280.593C171.574 282.584 171.465 284.628 172.859 285.32C173.275 285.528 174.231 285.465 174.694 285.47C177.081 285.512 179.39 285.543 181.662 285.564C181.917 285.564 182.166 285.564 182.421 285.569C182.874 285.569 183.321 285.574 183.768 285.58C190.273 285.626 196.835 285.626 203.242 285.668C205.462 285.684 205.056 283.167 205.197 281.035V281.04Z" fill="#4D7FFF"/>
<path d="M205.145 279.673C205.093 279.34 205.036 279.038 204.984 278.794C204.984 278.794 204.984 278.794 204.984 278.789C204.999 279.189 204.973 279.631 204.9 280.089C204.552 282.184 204.703 284.711 202.514 284.482C196.18 283.812 189.691 283.167 183.264 282.48C182.822 282.434 182.375 282.387 181.933 282.34C181.683 282.314 181.433 282.288 181.184 282.257C178.937 282.012 176.655 281.758 174.304 281.482C173.847 281.43 172.895 281.399 172.505 281.149C171.99 280.822 171.725 280.312 171.606 279.688C171.59 279.99 171.58 280.297 171.58 280.603C171.58 282.595 171.47 284.638 172.864 285.33C173.28 285.538 174.237 285.476 174.7 285.481C177.081 285.522 179.395 285.554 181.667 285.574C181.922 285.574 182.172 285.574 182.427 285.58C182.879 285.58 183.326 285.585 183.773 285.59C190.278 285.637 196.841 285.637 203.247 285.678C205.467 285.694 205.062 283.177 205.202 281.045C205.233 280.557 205.212 280.089 205.15 279.678L205.145 279.673Z" fill="#305EFF"/>
<path d="M193.877 271.441C191.448 270.51 189.109 269.371 186.904 267.921C186.524 267.214 185.775 266.798 184.933 266.683C181.719 266.231 178.506 265.908 175.329 266.787C174.07 267.136 173.618 268.238 173.758 269.267C173.644 269.626 185.131 273.427 193.882 271.441H193.877Z" fill="#D8E4FD"/>
<path d="M193.227 268.41C186.633 272.247 178.828 274.15 168.616 272.19C167.919 272.055 167.326 271.597 167.04 270.947L113.284 148.235C112.91 147.377 113.133 146.379 113.84 145.765L144.494 119.199C145.653 118.196 147.463 118.705 147.926 120.167L194.178 265.924C194.48 266.876 194.085 267.91 193.227 268.415V268.41Z" fill="#4D7FFF"/>
<path d="M194.178 265.919L147.925 120.161C147.665 119.334 146.969 118.814 146.209 118.695V123.557C146.391 123.775 146.532 124.035 146.615 124.337L187.606 271.046C189.582 270.328 191.448 269.444 193.222 268.41C194.085 267.905 194.475 266.87 194.173 265.919H194.178Z" fill="#305EFF"/>
<path d="M149.095 123.848L137.692 203.952L123.642 171.879L149.095 123.848Z" fill="#305EFF"/>
<path d="M118.447 105.737L112.722 110.838C102.889 119.605 98.3445 132.87 100.726 145.823C101.47 149.873 101.277 154.038 100.154 158.001L88.3088 199.917C87.742 201.924 86.572 203.713 84.9549 205.034L43.0387 239.27C41.9779 240.138 41.3747 241.464 41.4631 242.831C42.1287 253.564 46.5902 261.14 54.3484 265.976C55.8356 266.902 57.7491 266.792 59.1583 265.742L101.459 234.116C112.046 226.202 120.08 215.361 124.567 202.928L141.509 156.014C145.804 144.122 147.998 131.58 147.998 118.939L118.447 105.737Z" fill="#4D7FFF"/>
<path d="M45.805 244.844C45.6802 243.476 46.247 242.134 47.287 241.24L88.2568 205.876C89.8375 204.513 90.9607 202.693 91.4755 200.671L102.177 158.448C103.191 154.459 103.269 150.289 102.416 146.259C99.6809 133.374 103.867 119.995 113.461 110.963L118.832 105.903L118.447 105.731L112.722 110.833C102.889 119.6 98.3445 132.864 100.726 145.817C101.47 149.868 101.277 154.033 100.154 157.995L88.3088 199.912C87.742 201.919 86.572 203.707 84.9549 205.028L43.0387 239.269C41.9779 240.138 41.3747 241.464 41.4631 242.831C42.1287 253.559 46.5902 261.14 54.3484 265.976C55.3156 266.579 56.4648 266.735 57.5359 266.485C50.7293 261.816 46.6942 254.713 45.8102 244.844H45.805Z" fill="#305EFF"/>
<path d="M134.702 96.5123C134.557 97.0062 134.421 97.5054 134.302 98.0046C133.725 100.402 133.465 102.84 133.751 105.035C134.078 107.557 135.441 110.074 137.427 111.696C138.186 112.32 138.956 112.757 139.72 113.048C139.803 113.063 139.886 113.079 139.975 113.095C142.679 113.526 144.832 112.46 146.558 110.75C148.451 108.872 149.818 106.215 150.827 103.886C152.299 100.49 153.203 96.8762 154.321 93.3663C154.399 93.1167 154.477 92.8619 154.545 92.602C154.956 91.0992 155.055 89.6328 154.904 88.2081C154.841 88.0365 154.784 87.8649 154.711 87.6933C154.191 86.3621 153.401 85.1609 152.33 84.2978C151.737 83.8142 151.061 83.4346 150.302 83.1902C144.977 81.4794 139.455 86.0917 137.172 90.4388C136.236 92.2276 135.352 94.3283 134.702 96.5175V96.5123Z" fill="#302132"/>
<path d="M112.722 110.843C118.317 102.274 125.659 87.3501 133.48 70.6585C136.111 65.0478 141.581 61.3039 147.764 60.8931L161.419 59.9831C164.799 59.7595 168.122 61.0075 170.498 63.4254C181.522 74.6052 186.441 82.5818 191.032 90.3816C191.547 91.2552 191.438 92.3679 190.757 93.1271C178.693 106.512 167.862 105.919 156.859 107.271L149.095 123.853C134.099 124.207 120.449 122.356 112.722 110.848V110.843Z" fill="#2243B6"/>
<path d="M160.705 65.731C161.02 64.2272 158.035 62.329 154.039 61.4911C150.042 60.6532 146.546 61.193 146.231 62.6967C145.916 64.2004 148.9 66.0987 152.897 66.9366C156.894 67.7745 160.39 67.2347 160.705 65.731Z" fill="#14286D"/>
<path d="M138.665 100.584C138.665 100.584 137.318 107.182 139.403 106.98C140.287 106.891 140.911 105.68 141.343 104.307C140.391 103.121 139.491 101.879 138.665 100.589V100.584Z" fill="#14286D"/>
<path d="M138.883 106.85C138.883 106.85 133.127 101.411 134.988 81.9475C134.988 81.9475 133.387 93.3092 139.226 103.777L138.883 106.845V106.85Z" fill="#14286D"/>
<path d="M133.553 72.2705C135.664 66.4207 140.708 62.1412 146.797 60.9868C141.015 61.7044 135.971 65.3391 133.48 70.6586C125.659 87.3502 118.317 102.274 112.722 110.843C113.793 112.434 114.979 113.838 116.263 115.076C121.162 105.695 127.199 89.8877 133.558 72.2705H133.553Z" fill="#14286D"/>
<path d="M291.874 8L231.087 21.2753L245.033 36.5889L209.211 69.2129L160.707 15.9558L3 159.587L17.0033 174.963L159.334 45.3403L207.839 98.5974L259.037 51.9649L272.988 67.2838L291.874 8Z" fill="#48D08C"/>
<path d="M166.936 46.2918C166.702 46.0942 166.453 45.9122 166.203 45.7406C165.735 45.4182 165.236 45.1374 164.721 44.8982C164.633 44.5186 164.544 44.139 164.44 43.7594C164.066 42.3711 163.515 40.9411 162.667 39.7451C166.796 36.8488 164.94 32.3457 163.348 29.7822C162.766 28.8462 161.445 28.7942 160.754 29.6522C159.672 30.999 158.341 31.9765 156.89 32.7253V47.5658L159.334 45.3402L168.205 55.0796C168.065 53.9772 167.612 52.8956 167.118 51.8765C167.108 51.8557 167.097 51.8349 167.087 51.8141C166.947 51.5281 166.801 51.2473 166.661 50.9717C166.661 50.9665 166.655 50.9613 166.65 50.9509C166.567 50.7897 166.494 50.6285 166.416 50.4673C166.302 50.2229 166.193 49.9785 166.089 49.7341C166.354 49.3493 166.619 48.9645 166.869 48.5693C167.311 47.8673 167.68 46.9106 166.931 46.2866L166.936 46.2918Z" fill="#009E5C"/>
<path d="M139.003 99.3255C138.878 99.7415 138.769 100.163 138.665 100.584C141.452 104.926 144.988 108.789 149.002 111.332C154.925 115.091 161.882 115.975 169.006 111.254C177.679 105.508 181.496 95.6908 183.82 85.9722C184.21 84.3342 184.574 82.6755 184.782 81.0011C184.871 80.6735 184.964 80.3459 185.047 80.0183C185.734 77.3092 186.15 74.3973 185.011 71.7453C184.761 71.1682 184.434 70.6222 184.039 70.1334C183.612 69.6082 183.061 69.1766 182.676 68.615C181.974 67.5906 181.985 66.2803 181.99 65.0895C182 62.344 181.714 59.4528 180.524 56.9361C180.004 55.8441 179.187 54.7937 178.012 54.3674C177.497 54.1802 176.904 54.1646 176.4 54.3414C176.14 53.7538 175.74 53.239 175.157 52.8542C174.528 52.4434 173.727 52.2822 172.999 52.5162C172.968 52.5266 172.942 52.5422 172.916 52.5474C172.308 51.9806 171.372 51.965 170.649 52.3394C169.749 52.8074 169.328 53.8162 169.032 54.7314C167.805 58.5845 166.713 62.6664 166.874 66.7483C166.941 68.4954 168.023 70.0294 168.527 71.6621C170.238 77.2052 164.227 89.1597 162.709 91.2553C161.445 92.9972 159.022 94.5676 157.02 92.966C156.625 92.6488 156.245 92.2796 155.881 91.874C155.127 91.0317 154.446 90.0281 153.874 89.0089C153.375 88.5981 152.803 88.2809 152.163 88.0729C147.671 86.6326 143.017 90.5221 141.088 94.188C140.297 95.696 139.554 97.4691 139.003 99.3151V99.3255Z" fill="#D8E4FD"/>
<path d="M176.478 54.7366C176.041 55.657 175.942 56.6814 175.89 57.685C175.833 58.7821 175.802 59.8845 175.791 60.9869C175.771 63.1812 175.833 65.3808 175.984 67.5699C176.005 67.8819 175.516 67.8819 175.495 67.5699C175.344 65.2976 175.277 63.02 175.308 60.7425C175.323 59.6297 175.349 58.5221 175.417 57.4094C175.479 56.4006 175.62 55.4074 176.057 54.487C176.192 54.201 176.613 54.4506 176.478 54.7366Z" fill="#754E4E"/>
<path d="M172.703 52.8697C171.574 54.6897 171.294 56.8476 171.127 58.9431C170.94 61.3247 170.795 63.7062 170.628 66.0878C170.607 66.3998 170.119 66.405 170.139 66.0878C170.311 63.6334 170.457 61.1791 170.654 58.7299C170.826 56.6188 171.143 54.4504 172.276 52.6149C172.443 52.3497 172.864 52.5941 172.698 52.8645L172.703 52.8697Z" fill="#754E4E"/>
<path d="M170.301 106.72C163.182 111.436 156.219 110.557 150.297 106.798C146.355 104.297 142.876 100.527 140.11 96.2783C139.694 97.2507 139.315 98.2699 139.003 99.3254C138.878 99.7414 138.769 100.163 138.665 100.584C141.452 104.926 144.988 108.789 149.002 111.332C154.925 115.091 161.887 115.975 169.006 111.254C177.284 105.773 181.132 96.5851 183.487 87.3137C181.044 94.9627 177.216 102.133 170.301 106.72Z" fill="#B4CDFD"/>
<path d="M157.514 61.2052C158.179 61.4339 158.871 61.6471 159.578 61.8291C159.656 61.3871 159.734 60.9452 159.812 60.5032C159.828 60.4148 159.849 60.3212 159.864 60.2328C160.239 58.34 160.613 56.4473 160.987 54.5493C161.143 53.7745 160.878 53.1193 160.426 52.667C160.275 52.2926 159.989 51.9962 159.625 51.7986C159.521 51.6582 159.401 51.5386 159.256 51.4398C159.271 51.2942 159.292 51.1486 159.303 51.003C159.427 49.6354 157.873 48.7047 156.682 48.9802C156.219 48.7203 155.678 48.6267 155.195 48.7255C154.243 47.5919 152.148 47.4931 151.758 49.3234C151.274 51.5698 150.77 53.8109 150.239 56.0469C152.018 58.4544 154.675 60.2224 157.503 61.2052H157.514Z" fill="#754E4E"/>
<path d="M167.227 56.4992C167.758 54.2321 166.369 52.1365 165.184 50.3426C164.934 49.9682 164.705 49.5834 164.492 49.1986C164.716 48.7878 164.934 48.377 165.137 47.9559C165.501 47.2071 165.756 46.2191 164.945 45.6835C164.69 45.5119 164.425 45.3559 164.154 45.2155C163.65 44.9503 163.125 44.7267 162.584 44.5395C162.454 44.1703 162.324 43.8064 162.178 43.4424C161.315 41.2428 159.963 38.9705 157.717 37.9617C155.637 37.0309 153.312 37.5197 151.305 38.3881C151.196 38.4349 151.113 38.5077 151.056 38.5909C147.114 40.6708 144.857 45.2987 145.825 49.703C146.839 54.3101 150.754 57.6068 155.054 59.1044C157.275 59.8792 159.802 60.4615 162.168 60.2588C164.383 60.0664 166.687 58.8132 167.227 56.5044V56.4992Z" fill="#D8E4FD"/>
<path d="M141.737 43.2864L141.285 44.004C139.969 46.1047 140.105 48.8035 141.623 50.7638L148.492 59.6192C148.924 60.1756 149.074 60.8984 148.903 61.5847L150.483 55.6725L151.029 51.9442L152.054 50.9354C152.054 50.9354 149.584 49.2299 150.795 46.9211C152.007 44.6124 151.783 42.132 151.783 42.132L147.015 39.1421L141.737 43.2916V43.2864Z" fill="#14286D"/>
<path d="M150.489 56.0104C151.17 56.0364 151.877 55.8284 152.304 55.2616C153.401 53.8057 152.304 52.3445 151.196 51.3201C150.047 50.2646 147.587 48.5798 146.412 50.5558C146.001 51.2473 146.012 52.1313 146.256 52.9009C146.355 53.2129 146.49 53.5145 146.662 53.7901C147.463 55.1057 148.96 55.9532 150.494 56.0104H150.489Z" fill="#D8E4FD"/>
<path d="M161.009 42.2828L161.373 43.1095L158.892 46.2035C158.799 46.3231 158.627 46.2971 158.596 46.1619L158.57 46.0475C158.409 45.3767 158.596 44.6279 159.064 44.0403L160.494 42.2568C160.645 42.0644 160.92 42.08 161.009 42.2776V42.2828Z" fill="#754E4E"/>
<path d="M161.93 46.4056C162.164 46.2596 162.088 45.7166 161.761 45.193C161.434 44.6693 160.979 44.3632 160.745 44.5092C160.511 44.6553 160.587 45.1982 160.914 45.7219C161.241 46.2456 161.696 46.5517 161.93 46.4056Z" fill="#754E4E"/>
<path d="M144.541 44.0975L142.388 41.7472C142.388 41.7472 139.944 39.0589 144.541 37.2285C148.602 35.6113 154.129 34.2906 156.947 29.8395C157.535 28.9087 158.856 28.8151 159.537 29.6783C162.548 33.5002 166.817 42.2776 144.541 44.0975Z" fill="#14286D"/>
<path d="M166.271 52.0792C165.933 51.476 165.548 50.8988 165.184 50.3477C165.085 50.1969 164.992 50.0461 164.898 49.8953C164.446 50.0773 163.988 50.1968 163.484 50.1916C163.166 50.1812 162.787 50.2853 162.584 50.5452C162.553 50.5868 162.527 50.6284 162.506 50.6752C162.444 50.8052 162.412 50.9508 162.423 51.0912C162.449 51.5228 162.813 51.8868 163.177 52.0948C163.978 52.5576 165.22 52.464 166.11 52.152C166.167 52.1312 166.219 52.1052 166.271 52.0792Z" fill="white"/>
<path d="M148.856 61.8031C148.539 63.3059 150.604 65.0115 153.458 65.6094C156.318 66.2074 158.887 65.4742 159.204 63.9715C159.241 63.7427 159.277 63.5191 159.319 63.2903C159.475 62.3595 159.646 61.4287 159.813 60.5032C159.828 60.4148 159.849 60.3212 159.865 60.2328C160.239 58.34 160.613 56.4473 160.988 54.5493C161.144 53.7745 160.878 53.1193 160.426 52.667C160.275 52.2926 159.989 51.9962 159.625 51.7986C159.521 51.6582 159.402 51.5386 159.256 51.4398C159.272 51.2942 159.293 51.1486 159.303 51.003C159.428 49.6354 157.873 48.7047 156.682 48.9802C156.219 48.7203 155.679 48.6267 155.195 48.7255C154.243 47.5919 152.148 47.4931 151.758 49.3234C150.864 53.4937 149.886 57.6536 148.841 61.7875C148.841 61.7875 148.851 61.7979 148.851 61.8031H148.856Z" fill="#D8E4FD"/>
</svg>
